<svg version="1.1" id="Layer_1" xmlns="http://www.w3.org/2000/svg" xmlns:xlink="http://www.w3.org/1999/xlink" x="0px" y="0px"
	 width="100%" viewBox="0 0 1024 1024" enable-background="new 0 0 1024 1024" xml:space="preserve">
<path fill="#6B7534" opacity="1.000000" stroke="none" 
	d="
M487.198242,250.908966 
	C506.136292,246.860657 524.904236,246.043472 543.756409,246.703476 
	C573.620972,247.749023 602.038147,254.634216 628.810547,268.084717 
	C633.326416,270.353546 635.413269,273.540863 635.308655,278.761078 
	C635.044922,291.922638 635.228394,305.092651 635.151550,318.258820 
	C635.138672,320.461395 635.799866,323.195831 632.534607,323.946808 
	C629.201111,324.713470 628.003479,322.691406 626.717163,319.990265 
	C610.346375,285.614929 583.515808,264.613312 545.508484,260.704407 
	C506.643311,256.707275 471.610809,267.833008 441.568909,293.179413 
	C403.293030,325.472748 380.873962,367.214996 369.824127,415.491180 
	C367.824982,424.225281 366.872009,433.199493 365.456848,442.066162 
	C364.961670,445.168793 366.090027,446.729523 369.472748,446.722168 
	C399.638855,446.656616 429.816559,447.158234 459.966949,446.460327 
	C477.064636,446.064514 490.645874,438.919586 495.702301,420.842438 
	C496.266663,418.824738 497.297638,417.635803 499.568359,417.799622 
	C502.201904,417.989594 502.239624,419.877686 502.240021,421.753021 
	C502.244598,443.752869 502.235077,465.752747 502.211731,487.752594 
	C502.209930,489.441345 502.213318,491.107727 499.824066,491.401764 
	C496.894836,491.762299 495.605560,490.316742 494.913574,487.713593 
	C491.625305,475.343140 483.397552,467.778259 471.468689,463.925049 
	C466.007690,462.161072 460.313904,462.017975 454.657990,462.018341 
	C426.658539,462.020142 398.658752,462.202179 370.659912,462.098053 
	C365.999603,462.080750 364.257233,463.359589 364.253723,468.282684 
	C364.205902,535.832275 386.144226,595.230347 431.630646,645.117737 
	C460.073303,676.312317 495.516296,695.937012 537.900452,701.843262 
	C567.759155,706.004150 596.718506,703.790222 623.950073,689.732422 
	C641.535278,680.654358 655.531555,667.628540 665.533203,650.447632 
	C666.119324,649.440796 666.673035,648.403687 667.365295,647.472534 
	C668.642456,645.754517 670.509644,645.759033 672.366577,646.046875 
	C674.447754,646.369507 674.984741,648.005005 674.990967,649.748108 
	C675.040100,663.579285 675.114319,677.411560 674.976746,691.241394 
	C674.943420,694.591736 672.344604,696.388794 669.579407,697.882385 
	C654.575562,705.986633 638.248291,710.036865 621.679382,713.024536 
	C601.303284,716.698730 580.685120,718.209045 559.998779,716.925171 
	C510.240936,713.836975 463.666870,700.730591 422.011749,672.375000 
	C368.428955,635.900024 338.381287,584.241089 326.192596,521.723694 
	C315.023071,464.433563 320.935944,408.722137 348.330566,356.691528 
	C377.976288,300.385376 424.950104,265.688202 487.198242,250.908966 
z"/>
<path fill="#6B7534" opacity="1.000000" stroke="none" 
	d="
M441.163239,547.845459 
	C460.864502,592.104126 495.492249,616.657288 541.787598,625.721619 
	C572.775452,631.788818 603.462463,630.471436 633.039795,618.527466 
	C658.598206,608.206299 678.928284,591.724854 691.089355,566.341736 
	C692.023254,564.392456 692.891541,562.394348 693.576782,560.347473 
	C694.504639,557.576416 696.628967,557.675781 698.855591,557.867920 
	C701.164734,558.067200 701.299194,559.793640 701.301331,561.514648 
	C701.320068,576.843811 701.364624,592.173157 701.294250,607.501953 
	C701.270325,612.708618 697.122925,614.886108 693.371277,616.921936 
	C681.479492,623.375000 668.993164,628.494934 655.972595,632.165955 
	C628.895264,639.800354 601.254761,643.675659 573.125366,642.960388 
	C535.445801,642.002380 499.069427,635.285828 465.322906,617.377563 
	C427.813873,597.472717 403.588196,566.978577 391.894470,526.338562 
	C386.706085,508.306976 384.504089,489.879669 384.633240,471.122284 
	C384.660980,467.097198 385.796875,465.510315 390.023438,465.612000 
	C400.181488,465.856232 410.357025,465.918884 420.510101,465.585815 
	C425.233215,465.430878 426.417023,467.124817 426.371674,471.591248 
	C426.104950,497.863556 430.855652,523.214478 441.163239,547.845459 
z"/>
<path fill="#6B7534" opacity="1.000000" stroke="none" 
	d="
M651.514221,546.490967 
	C652.344238,544.265625 653.040588,542.394897 653.688538,540.507629 
	C654.444214,538.306702 656.181519,538.012024 658.122986,538.248718 
	C660.120300,538.492249 660.303955,540.044495 660.262146,541.608521 
	C659.902344,555.089539 659.516846,568.569824 659.150024,582.050659 
	C659.087646,584.344543 657.880127,585.335876 655.658142,585.296021 
	C654.492798,585.275085 653.326355,585.326599 652.160400,585.326660 
	C607.680359,585.327515 563.200317,585.326233 518.720276,585.324463 
	C517.720764,585.324463 516.717651,585.367371 515.722534,585.298401 
	C514.118835,585.187317 512.257202,585.526245 511.879791,583.136414 
	C511.504089,580.757263 512.858398,579.913635 514.855042,579.364441 
	C522.969299,577.132812 528.347290,572.188354 529.548828,563.606812 
	C530.263062,558.506165 530.865845,553.337219 530.871277,548.198242 
	C530.916687,505.051239 530.811890,461.904022 530.752869,418.756897 
	C530.745361,413.260742 530.590088,407.788330 529.776917,402.324280 
	C528.554749,394.111694 524.438416,388.529419 516.250732,386.219849 
	C514.138428,385.624054 511.144226,385.593170 511.882233,382.101776 
	C512.529602,379.039062 515.252136,379.886536 517.232849,379.884003 
	C539.389282,379.855774 561.545959,379.916321 583.702515,379.955353 
	C584.368652,379.956543 585.036560,379.957764 585.700562,380.003418 
	C587.545715,380.130310 589.574829,380.113647 589.877625,382.587555 
	C590.194824,385.179230 588.553406,386.009338 586.298401,386.385040 
	C575.252014,388.225403 568.711609,394.480255 567.549377,405.848022 
	C567.312622,408.163849 567.161133,410.499817 567.159851,412.826599 
	C567.132507,464.303009 567.162598,515.779480 567.065796,567.255737 
	C567.058350,571.221985 568.130920,572.999634 572.404053,572.856689 
	C588.678345,572.312378 605.081238,574.151062 621.184021,570.534058 
	C634.929626,567.446533 645.625366,560.242737 651.514221,546.490967 
z"/>
<path fill="#6B7534" opacity="1.000000" stroke="none" 
	d="
M468.081116,342.975739 
	C491.876312,331.995239 516.632568,327.118958 542.322083,325.464050 
	C577.451965,323.200897 611.354736,327.992554 644.099548,340.875397 
	C654.050842,344.790527 663.441956,349.789215 672.353394,355.740234 
	C675.741089,358.002594 677.337830,360.663116 677.300659,364.799866 
	C677.161377,380.297913 677.311035,395.798370 677.213379,411.297058 
	C677.197388,413.838562 678.471985,417.301971 673.987793,417.884399 
	C669.939026,418.410339 669.522461,415.419556 668.634216,412.724335 
	C661.007324,389.579834 648.153748,370.260590 627.668518,356.438934 
	C613.682617,347.002472 598.049316,341.883484 581.587708,339.670380 
	C552.744629,335.792664 524.744751,339.452545 498.181366,351.662994 
	C463.049164,367.812225 441.447266,395.317871 431.286835,432.308929 
	C428.318390,443.116058 430.473694,441.128204 419.513824,441.290619 
	C411.016022,441.416565 402.514679,441.341522 394.015320,441.289978 
	C392.240173,441.279205 390.326782,441.772949 388.082642,439.834442 
	C398.052734,394.134308 425.295746,362.461884 468.081116,342.975739 
z"/>
</svg>